<svg xmlns="http://www.w3.org/2000/svg" viewBox="0 0 1400 520" role="img" aria-labelledby="title desc">
  <title id="title">Mindbridge Innovations logo</title>
  <desc id="desc">Clean MBI logo with blue brand mark and Mindbridge Innovations wordmark</desc>
  <defs>
    <linearGradient id="mbiBlue" x1="0%" y1="0%" x2="100%" y2="100%">
      <stop offset="0%" stop-color="#4b8bff"/>
      <stop offset="45%" stop-color="#2e66ea"/>
      <stop offset="100%" stop-color="#2048bf"/>
    </linearGradient>
    <linearGradient id="mbiBlueSoft" x1="0%" y1="0%" x2="100%" y2="100%">
      <stop offset="0%" stop-color="#88bbff" stop-opacity="0.9"/>
      <stop offset="100%" stop-color="#d7e7ff" stop-opacity="0.55"/>
    </linearGradient>
    <filter id="shadow" x="-20%" y="-20%" width="140%" height="140%">
      <feDropShadow dx="0" dy="12" stdDeviation="14" flood-color="#14329a" flood-opacity="0.18"/>
    </filter>
    <filter id="softGlow" x="-30%" y="-30%" width="160%" height="160%">
      <feGaussianBlur stdDeviation="10" result="blur"/>
      <feColorMatrix in="blur" type="matrix" values="1 0 0 0 0.20 0 1 0 0 0.40 0 0 1 0 0.95 0 0 0 0.45 0"/>
    </filter>
  </defs>

  <rect width="1400" height="520" fill="none"/>

  <g transform="translate(72 58)" filter="url(#shadow)">
    <g filter="url(#softGlow)" opacity="0.55">
      <circle cx="334" cy="76" r="30" fill="#4b8bff"/>
      <circle cx="334" cy="76" r="14" fill="#d7e7ff"/>
    </g>

    <path d="M40 134c0-10 8-18 18-18h28c10 0 18 8 18 18v160c0 20 16 36 36 36h20c20 0 36-16 36-36V134c0-10 8-18 18-18h30c10 0 18 8 18 18v160c0 20 16 36 36 36h20c20 0 36-16 36-36V134c0-10 8-18 18-18h28c10 0 18 8 18 18v160c0 20 16 36 36 36h18c20 0 36-16 36-36V134c0-10 8-18 18-18h26c10 0 18 8 18 18v160c0 52-42 94-94 94h-20c-33 0-63-16-80-42-17 26-47 42-81 42h-20c-33 0-63-16-80-42-17 26-47 42-81 42h-22c-52 0-94-42-94-94V134z" fill="url(#mbiBlue)"/>
    <path d="M280 96h34c10 0 18 8 18 18v192c0 10-8 18-18 18h-34c-10 0-18-8-18-18V114c0-10 8-18 18-18z" fill="url(#mbiBlue)"/>
    <path d="M428 100h30c10 0 18 8 18 18v184c0 10-8 18-18 18h-30c-10 0-18-8-18-18V118c0-10 8-18 18-18z" fill="url(#mbiBlue)"/>
    <rect x="335" y="92" width="56" height="56" rx="18" fill="#3f73ef"/>
    <g transform="translate(322 28)">
      <rect x="20" y="0" width="12" height="30" rx="6" fill="url(#mbiBlueSoft)"/>
      <rect x="20" y="112" width="12" height="30" rx="6" fill="url(#mbiBlueSoft)"/>
      <rect x="0" y="20" width="30" height="12" rx="6" transform="rotate(-60 15 26)" fill="url(#mbiBlueSoft)"/>
      <rect x="0" y="112" width="30" height="12" rx="6" transform="rotate(60 15 118)" fill="url(#mbiBlueSoft)"/>
      <rect x="-30" y="56" width="30" height="12" rx="6" transform="rotate(18 0 62)" fill="url(#mbiBlueSoft)"/>
      <rect x="20" y="56" width="30" height="12" rx="6" transform="rotate(-18 35 62)" fill="url(#mbiBlueSoft)"/>
      <rect x="56" y="20" width="30" height="12" rx="6" transform="rotate(60 71 26)" fill="url(#mbiBlueSoft)"/>
      <rect x="56" y="112" width="30" height="12" rx="6" transform="rotate(-60 71 118)" fill="url(#mbiBlueSoft)"/>
    </g>
  </g>

  <g transform="translate(560 126)">
    <text x="0" y="0" font-family="Inter, Arial, sans-serif" font-size="92" font-weight="900" letter-spacing="-3.5" fill="#0b0f19">MINDBRIDGE</text>
    <text x="0" y="96" font-family="Inter, Arial, sans-serif" font-size="92" font-weight="900" letter-spacing="-3.5" fill="#0b0f19">INNOVATIONS</text>
  </g>
</svg>